SplineFontDB: 3.0
FontName: Ulica-Regular
FullName: Ulica Regular
FamilyName: Ulica
Weight: Regular
Copyright: 
Version: 
ItalicAngle: 0
UnderlinePosition: 0
UnderlineWidth: 0
Ascent: 800
Descent: 205
InvalidEm: 0
LayerCount: 2
Layer: 0 0 "Back" 1
Layer: 1 0 "Fore" 0
XUID: [1021 169 1083699182 1716466]
OS2Version: 0
OS2_WeightWidthSlopeOnly: 0
OS2_UseTypoMetrics: 0
CreationTime: 1404386441
ModificationTime: 1448995711
PfmFamily: 17
TTFWeight: 400
TTFWidth: 5
LineGap: 92
VLineGap: 92
OS2TypoAscent: 0
OS2TypoAOffset: 1
OS2TypoDescent: 0
OS2TypoDOffset: 1
OS2TypoLinegap: 92
OS2WinAscent: 0
OS2WinAOffset: 1
OS2WinDescent: 0
OS2WinDOffset: 1
HheadAscent: 0
HheadAOffset: 1
HheadDescent: 0
HheadDOffset: 1
OS2Vendor: 'PfEd'
Lookup: 4 0 1 "'liga' Standard Ligatures lookup" { "'liga' Standard Ligatures lookup-1"  } ['liga' ('DFLT' <'dflt' > 'cyrl' <'dflt' > 'latn' <'PLK ' 'dflt' > ) ]
Lookup: 1 0 0 "Polish letters" { "Polish letters"  } ['locl' ('DFLT' <'dflt' > 'latn' <'PLK ' > ) ]
Lookup: 258 0 0 "'kern' Horizontal Kerning lookup 0" { "'kern' Horizontal Kerning lookup subtable" [150,15,0] } ['kern' ('DFLT' <'dflt' > 'cyrl' <'dflt' > 'latn' <'PLK ' 'dflt' > ) ]
Lookup: 260 0 0 "'mark' Mark Positioning in Latin lookup 0" { "'mark' Mark Positioning in Latin lookup 0-1"  } ['mark' ('DFLT' <'dflt' > 'latn' <'dflt' > ) ]
MarkAttachClasses: 2
"top" 0 
DEI: 91125
KernClass2: 6 6 "'kern' Horizontal Kerning lookup subtable"
 1 T
 15 W V Wcircumflex
 30 a b c d e m n o r s u z oslash
 22 l lacute lcaron lslash
 8 t tcaron
 35 a c d e g i m n o p q r s u v x y z
 78 A Agrave Aacute Acircumflex Adieresis Aring Aogonek uni01CD Aringacute uni0226
 6 period
 7 uni0237
 1 j
 0 {} 0 {} 0 {} 0 {} 0 {} 0 {} 0 {} -90 {} -60 {} -100 {} -170 {} -90 {} 0 {} -30 {} -70 {} -60 {} -110 {} -110 {} 0 {} 0 {} 0 {} 0 {} -100 {} -100 {} 0 {} 0 {} 0 {} 10 {} -90 {} -90 {} 0 {} 0 {} 0 {} 0 {} -100 {} -100 {}

StartChar: uni0000
Encoding: 0 0 0
Width: 1024
VWidth: 1024
HStem: 0 1024<0 1000>
VStem: 0 1000<0 1024>
LayerCount: 2
Fore
SplineSet
0 0 m 1
 0 1024 l 1
 1000 1024 l 1
 1000 0 l 1
 0 0 l 1
EndSplineSet
Validated: 1
EndChar

StartChar: A
Encoding: 65 65 1
Width: 360
VWidth: 799
Flags: W
HStem: 0 21G<25 116.697 243.303 335> 89 89<139 221> 602 20G<111.138 248.862>
VStem: 25 310
LayerCount: 2
Fore
SplineSet
114 622 m 1
 246 622 l 1
 335 0 l 1
 246 0 l 1
 234 89 l 1
 126 89 l 1
 114 0 l 1
 25 0 l 1
 114 622 l 1
180 467 m 1
 139 178 l 1
 221 178 l 1
 180 467 l 1
EndSplineSet
Validated: 1
EndChar

StartChar: B
Encoding: 66 66 2
Width: 360
VWidth: 799
Flags: W
HStem: 0 89<202 242.645> 267 88<202 240.437> 533 89<202 241.111>
VStem: 246 89<92.2653 133 222 261.36 358.289 400 489 528.112>
CounterMasks: 1 e0
LayerCount: 2
Fore
SplineSet
335 533 m 2
 335 576.885 290.373 622 246 622 c 0
 172.333 622 98.6667 622 25 622 c 1
 25 0 l 1
 98.6667 -0 172.333 0 246 0 c 0
 290.385 0 335 45.1134 335 89 c 2
 335 267 l 2
 335 282 330 296 321 311 c 1
 330 325 335 340 335 355 c 2
 335 533 l 2
246 400 m 2
 246 368.415 233.7 355 202 355 c 2
 114 355 l 1
 114 533 l 1
 202 533 l 2
 228.396 533 246 515.4 246 489 c 2
 246 400 l 2
246 133 m 2
 246 102.405 234.146 89 202 89 c 2
 114 89 l 1
 114 267 l 1
 202 267 l 2
 227.879 267 246 248.335 246 222 c 2
 246 133 l 2
EndSplineSet
Validated: 9
EndChar

StartChar: C
Encoding: 67 67 3
Width: 360
VWidth: 799
Flags: W
HStem: -0 88<117.438 242.563> 444 21G<246 335> 533 89<119.487 240.513>
VStem: 25 89<91.2892 527.464> 246 89<91.2897 177 444 527.467>
LayerCount: 2
Fore
SplineSet
25 533 m 2
 25 576.021 69.6274 622 114 622 c 0
 158 622 202 622 246 622 c 0
 290.385 622 335 576.015 335 533 c 2
 335 444 l 1
 246 444 l 1
 246 488 l 2
 246 514.829 227.881 533 202 533 c 2
 158 533 l 2
 132.121 533 114 514.816 114 488 c 2
 114 133 l 2
 114 101.415 126.3 88 158 88 c 2
 202 88 l 2
 233.704 88 246 101.418 246 133 c 2
 246 177 l 1
 335 177 l 1
 335 88 l 2
 335 44.6477 290.917 0 246 -0 c 0
 202 -0 158 0 114 -0 c 0
 69.0737 0 25 44.6473 25 88 c 2
 25 533 l 2
EndSplineSet
Validated: 1
EndChar

StartChar: D
Encoding: 68 68 4
Width: 360
VWidth: 799
Flags: W
HStem: 0 89<202 242.974> 533 89<202 240.539>
VStem: 246 89<92.1962 133 489 527.539>
LayerCount: 2
Fore
SplineSet
335 533 m 2
 335 577 290 622 246 622 c 2
 25 622 l 1
 25 0 l 1
 246 0 l 2
 290 0 335 45 335 89 c 2
 335 533 l 2
246 133 m 2
 246 102 234 89 202 89 c 2
 114 89 l 1
 114 533 l 1
 202 533 l 2
 228 533 246 515 246 489 c 2
 246 133 l 2
EndSplineSet
Validated: 9
EndChar

StartChar: E
Encoding: 69 69 5
Width: 360
VWidth: 799
Flags: W
HStem: 0 89<114 335> 267 88<114 335> 533 89<114 335>
VStem: 25 310<0 89 267 355 533 622> 25 89<89 267 355 533>
CounterMasks: 1 e0
LayerCount: 2
Fore
SplineSet
25 622 m 1xf0
 128.333 622 231.667 622 335 622 c 1
 335 533 l 1xf0
 114 533 l 1
 114 355 l 1xe8
 335 355 l 1
 335 267 l 1xf0
 114 267 l 1
 114 89 l 1xe8
 335 89 l 1
 335 0 l 1
 231.667 -0 128.333 0 25 0 c 1
 25 622 l 1xf0
EndSplineSet
Validated: 1
EndChar

StartChar: F
Encoding: 70 70 6
Width: 360
VWidth: 799
Flags: W
HStem: 0 21G<25 114> 267 88<114 335> 533 89<114 335>
VStem: 25 89<0 267 355 533>
LayerCount: 2
Fore
SplineSet
25 622 m 1
 128.333 622 231.667 622 335 622 c 1
 335 533 l 1
 114 533 l 1
 114 355 l 1
 335 355 l 1
 335 267 l 1
 114 267 l 1
 114 0 l 1
 25 0 l 1
 25 207.333 25 414.667 25 622 c 1
EndSplineSet
Validated: 1
EndChar

StartChar: G
Encoding: 71 71 7
Width: 360
VWidth: 799
Flags: W
HStem: 0 89<117.355 242.646> 222 89<174 246> 444 21G<246 335> 533 89<118.889 241.112>
VStem: 25 89<92.2653 528.112> 174 161<222 311> 246 89<92.2634 222 444 528.111>
LayerCount: 2
Fore
SplineSet
25 533 m 2xfa
 25 576.885 69.6274 622 114 622 c 0
 158 622 202 622 246 622 c 0
 290.385 622 335 576.887 335 533 c 2
 335 444 l 1
 246 444 l 1
 246 489 l 2
 246 515.396 228.4 533 202 533 c 2
 158 533 l 2
 131.604 533 114 515.4 114 489 c 2
 114 133 l 2
 114 102.405 125.854 89 158 89 c 2
 202 89 l 2
 234.15 89 246 102.394 246 133 c 0
 246 162.667 246 192.333 246 222 c 1xfa
 174 222 l 1
 174 311 l 1
 335 311 l 1xfc
 335 237 335 163 335 89 c 0
 335 45.1151 290.373 0 246 0 c 0
 202 -0 158 0 114 0 c 0
 69.6151 0 25 45.1134 25 89 c 2
 25 533 l 2xfa
EndSplineSet
Validated: 1
EndChar

StartChar: H
Encoding: 72 72 8
Width: 360
VWidth: 799
Flags: W
HStem: 0 21G<25 114 246 335> 267 88<114 246> 602 20G<25 114 246 335>
VStem: 25 89<0 267 355 622> 246 89<0 267 355 622>
LayerCount: 2
Fore
SplineSet
25 622 m 1
 114 622 l 1
 114 355 l 1
 246 355 l 1
 246 622 l 1
 335 622 l 1
 335 0 l 1
 246 0 l 1
 246 267 l 1
 114 267 l 1
 114 0 l 1
 25 0 l 1
 25 622 l 1
EndSplineSet
Validated: 1
EndChar

StartChar: I
Encoding: 73 73 9
Width: 138
VWidth: 799
Flags: W
HStem: 0 21G<25 113.553> 602.066 20G<25 113.553>
VStem: 25 88.553<0 622.066>
LayerCount: 2
Fore
SplineSet
25 0 m 1
 25 622.066 l 1
 113.553 622.066 l 1
 113.553 0 l 1
 25 0 l 1
EndSplineSet
Validated: 1
EndChar

StartChar: J
Encoding: 74 74 10
Width: 360
VWidth: 799
Flags: W
HStem: 0 89<117.355 242.646> 533 89<25 246>
VStem: 25 89<92.2653 178> 246 89<92.2634 533>
LayerCount: 2
Fore
SplineSet
202 89 m 2
 234.15 89 246 102.394 246 133 c 2
 246 533 l 1
 25 533 l 1
 25 622 l 1
 335 622 l 1
 335 89 l 2
 335 45.1151 290.373 0 246 0 c 2
 114 0 l 2
 69.6151 0 25 45.1134 25 89 c 2
 25 178 l 1
 114 178 l 1
 114 133 l 2
 114 102.405 125.854 89 158 89 c 2
 202 89 l 2
EndSplineSet
Validated: 1
EndChar

StartChar: K
Encoding: 75 75 11
Width: 360
VWidth: 799
Flags: W
HStem: 0 21G<25 114 239.408 335> 267 88<114 158> 602 20G<25 114 239.408 335>
VStem: 25 89<0 267 355 622>
LayerCount: 2
Fore
SplineSet
25 622 m 1
 114 622 l 1
 114 355 l 1
 158 355 l 1
 246 622 l 1
 335 622 l 1
 222 311 l 1
 335 0 l 1
 246 0 l 1
 158 267 l 1
 114 267 l 1
 114 0 l 1
 25 0 l 1
 25 622 l 1
EndSplineSet
Validated: 1
EndChar

StartChar: L
Encoding: 76 76 12
Width: 360
VWidth: 799
Flags: W
HStem: 0 89<114 335> 602 20G<25 114>
VStem: 25 89<89 622>
LayerCount: 2
Fore
SplineSet
25 622 m 1
 114 622 l 1
 114 89 l 1
 335 89 l 1
 335 0 l 1
 231.667 -0 128.333 0 25 0 c 1
 25 207.333 25 414.667 25 622 c 1
EndSplineSet
Validated: 1
EndChar

StartChar: M
Encoding: 77 77 13
Width: 448
VWidth: 799
Flags: W
HStem: 0 21G<25 114 335 423> 602 20G<25 123.91 325 423>
VStem: 25 89<0 444> 335 88<0 444>
LayerCount: 2
Fore
SplineSet
25 622 m 1
 114 622 l 1
 224 400 l 1
 335 622 l 1
 423 622 l 1
 423 0 l 1
 335 0 l 1
 335 444 l 1
 298.025 369.975 260.328 296.672 224 222 c 1
 187.734 296.401 150.651 369.984 114 444 c 1
 114 0 l 1
 25 0 l 1
 25 622 l 1
EndSplineSet
Validated: 1
EndChar

StartChar: N
Encoding: 78 78 14
Width: 360
VWidth: 799
Flags: W
HStem: 0 21G<25 114 237.511 335> 602 20G<25 122.489 246 335>
VStem: 25 89<0 311> 246 89<311 622>
LayerCount: 2
Fore
SplineSet
25 622 m 1
 114 622 l 1
 246 311 l 1
 246 622 l 1
 335 622 l 1
 335 0 l 1
 246 0 l 1
 114 311 l 1
 114 0 l 1
 25 0 l 1
 25 622 l 1
EndSplineSet
Validated: 1
EndChar

StartChar: O
Encoding: 79 79 15
Width: 360
VWidth: 799
Flags: W
HStem: 0 89<117.354 158 202 242.645> 533 89<118.888 158 202 241.111>
VStem: 25 89<92.2634 133 489 528.111> 246 89<92.2653 133 489 528.112>
LayerCount: 2
Fore
SplineSet
335 533 m 2
 335 576.885 290.373 622 246 622 c 6
 114 622 l 6
 69.6151 622 25 576.887 25 533 c 2
 25 89 l 2
 25 45.1151 69.6274 0 114 0 c 2
 246 0 l 2
 290.385 0 335 45.1134 335 89 c 2
 335 533 l 2
114 489 m 2
 114 515.396 131.6 533 158 533 c 2
 202 533 l 2
 228.396 533 246 515.4 246 489 c 2
 246 133 l 2
 246 102.405 234.146 89 202 89 c 2
 158 89 l 2
 125.85 89 114 102.394 114 133 c 2
 114 489 l 2
EndSplineSet
Validated: 9
EndChar

StartChar: P
Encoding: 80 80 16
Width: 360
VWidth: 799
Flags: W
HStem: 267 88<202 242.618> 533 89<202 240.539>
VStem: 246 89<358.218 400 489 527.539>
LayerCount: 2
Fore
SplineSet
335 533 m 2
 335 577 290 622 246 622 c 2
 246 622 99 622 25 622 c 1
 25 415 25 207 25 0 c 1
 114 0 l 1
 114 267 l 1
 158 267 246 267 246 267 c 2
 291 267 335 312 335 355 c 2
 335 533 l 2
246 400 m 2
 246 368 234 355 202 355 c 2
 114 355 l 1
 114 533 l 1
 202 533 l 2
 228 533 246 515 246 489 c 2
 246 400 l 2
EndSplineSet
Validated: 9
EndChar

StartChar: Q
Encoding: 81 81 17
Width: 360
VWidth: 799
Flags: W
HStem: -1 89<117.001 232> 532 89<118.889 241.112>
VStem: 25 89<91.2163 527.112> 246 89<91.2139 527.111>
LayerCount: 2
Fore
SplineSet
25 532 m 2
 25 575.885 69.6274 621 114 621 c 2
 246 621 l 2
 290.385 621 335 575.887 335 532 c 2
 335 88 l 2
 335 64 325 43 304 24 c 1
 379 -90 l 1
 291 -90 l 1
 232 -1 l 1
 114 -1 l 2
 69.6151 -1 25 44.1134 25 88 c 2
 25 532 l 2
246 488 m 2
 246 514.396 228.4 532 202 532 c 2
 158 532 l 2
 131.604 532 114 514.4 114 488 c 2
 114 132 l 2
 114 101.118 125.854 88 158 88 c 2
 202 88 l 2
 234.15 88 246 101.104 246 132 c 2
 246 488 l 2
EndSplineSet
Validated: 1
EndChar

StartChar: R
Encoding: 82 82 18
Width: 360
VWidth: 799
Flags: W
HStem: 533 89<202 240.756>
VStem: 246 89<358.389 400 489 528.032>
LayerCount: 2
Fore
SplineSet
246 622 m 2
 25 622 l 1
 25 0 l 1
 114 0 l 1
 114 267 l 1
 158 267 l 1
 246 0 l 1
 335 0 l 1
 246 267 l 1
 290 267 335 312 335 355 c 2
 335 533 l 2
 335 577 290 622 246 622 c 2
246 400 m 2
 246 369 234 355 202 355 c 2
 114 355 l 1
 114 533 l 1
 202 533 l 2
 229 533 246 515 246 489 c 2
 246 400 l 2
EndSplineSet
Validated: 9
EndChar

StartChar: S
Encoding: 83 83 19
Width: 359
VWidth: 799
Flags: W
HStem: 0 89<116.508 242.542> 267 88<114.549 240.759> 444 21G<246 334> 533 89<118.007 241.112>
VStem: 25 88<92.4432 178 356.168 527.626> 246 88<92.4416 263.906 444 528.111>
LayerCount: 2
Fore
SplineSet
25 533 m 2
 25 576.341 69.6081 622 113 622 c 2
 246 622 l 2
 289.397 622 334 576.34 334 533 c 2
 334 444 l 1
 246 444 l 1
 246 489 l 2
 246 515.396 228.4 533 202 533 c 2
 157 533 l 2
 131.193 533 113 515.4 113 489 c 2
 113 400 l 2
 113 367.806 116.265 355 149 355 c 2
 228 355 l 2
 271.895 355 334 309.768 334 267 c 2
 334 89 l 2
 334 45.6585 289.392 0 246 0 c 2
 113 0 l 2
 69.6033 0 25 45.6598 25 89 c 2
 25 89 25 148.333 25 178 c 1
 113 178 l 1
 113 133 l 2
 113 103.448 125.678 89 157 89 c 2
 202 89 l 2
 233.594 89 246 103.439 246 133 c 2
 246 222 l 2
 246 250 233 267 208 267 c 2
 113 267 l 2
 69.0588 267 25 312.194 25 355 c 2
 25 533 l 2
EndSplineSet
Validated: 1
EndChar

StartChar: T
Encoding: 84 84 20
Width: 360
VWidth: 799
Flags: W
HStem: 0 21G<136 224> 533 89<25 136 224 335>
VStem: 136 88<0 533>
LayerCount: 2
Fore
SplineSet
25 622 m 1
 335 622 l 1
 335 533 l 1
 224 533 l 1
 224 0 l 1
 136 0 l 1
 136 533 l 1
 25 533 l 1
 25 622 l 1
EndSplineSet
Validated: 1
EndChar

StartChar: U
Encoding: 85 85 21
Width: 360
VWidth: 799
Flags: W
HStem: 0 89<117.355 242.646> 602 20G<25 114 246 335>
VStem: 25 89<92.2653 622> 246 89<92.2634 622>
LayerCount: 2
Fore
SplineSet
114 0 m 2
 69.6151 0 25 45.1134 25 89 c 2
 25 89 25 444.333 25 622 c 1
 114 622 l 1
 114 133 l 2
 114 102.405 125.854 89 158 89 c 2
 202 89 l 2
 234.15 89 246 102.394 246 133 c 2
 246 622 l 1
 335 622 l 1
 335 89 l 2
 335 45.1151 290.373 0 246 0 c 2
 114 0 l 2
EndSplineSet
Validated: 1
EndChar

StartChar: V
Encoding: 86 86 22
Width: 360
VWidth: 799
Flags: W
HStem: 0 21G<111.138 248.862> 602 20G<25 116.833 243.167 335>
VStem: 25 310
LayerCount: 2
Fore
SplineSet
25 622 m 1
 114 622 l 1
 180 156 l 1
 246 622 l 1
 335 622 l 1
 246 0 l 1
 114 0 l 1
 25 622 l 1
EndSplineSet
Validated: 1
EndChar

StartChar: W
Encoding: 87 87 23
Width: 448
VWidth: 799
Flags: W
HStem: 0 21G<111.138 204.767 243.233 337.83> 602 20G<25 116.794 332.17 423>
VStem: 114 88<0 49.166>
LayerCount: 2
Fore
SplineSet
25 622 m 1
 114 622 l 1
 158 307 l 1
 182 467 l 1
 267 467 l 1
 267 465 l 1
 269 465 l 1
 291 311 l 1
 335 622 l 1
 423 622 l 1
 335 0 l 1
 246 0 l 1
 224 159 l 1
 202 0 l 1
 114 0 l 1
 25 622 l 1
EndSplineSet
Validated: 1
EndChar

StartChar: X
Encoding: 88 88 24
Width: 360
VWidth: 799
Flags: W
HStem: 0 21G<25 121.059 238.941 335> 602 20G<25 121.059 238.941 335>
VStem: 25 310
LayerCount: 2
Fore
SplineSet
25 622 m 1
 114 622 l 1
 180 435 l 1
 246 622 l 1
 335 622 l 1
 224 311 l 1
 335 0 l 1
 246 0 l 1
 180 187 l 1
 114 0 l 1
 25 0 l 1
 136 311 l 1
 25 622 l 1
EndSplineSet
Validated: 1
EndChar

StartChar: Y
Encoding: 89 89 25
Width: 360
VWidth: 799
Flags: W
HStem: 0 21G<136 224> 602 20G<25 121.059 238.941 335>
VStem: 136 88<0 311>
LayerCount: 2
Fore
SplineSet
25 622 m 1
 114 622 l 1
 180 435 l 1
 246 622 l 1
 335 622 l 1
 224 311 l 1
 224 0 l 1
 136 0 l 1
 136 311 l 1
 25 622 l 1
EndSplineSet
Validated: 1
EndChar

StartChar: Z
Encoding: 90 90 26
Width: 360
VWidth: 799
Flags: W
HStem: 0 89<114 335> 533 89<25 246>
VStem: 25 310<0 89 533 622>
LayerCount: 2
Fore
SplineSet
25 622 m 1
 335 622 l 1
 335 533 l 1
 114 89 l 1
 335 89 l 1
 335 0 l 1
 25 0 l 1
 25 89 l 1
 246 533 l 1
 25 533 l 1
 25 622 l 1
EndSplineSet
Validated: 1
EndChar

StartChar: Aogonek
Encoding: 260 260 51
Width: 360
VWidth: 799
Flags: W
HStem: -204 61<231.772 306.509> 0 21G<25 116.697> 89 89<139 221> 602 20G<111.138 248.862>
VStem: 140 86<-138.793 -24.5588>
LayerCount: 2
Fore
SplineSet
180 467 m 1
 139 178 l 1
 221 178 l 1
 180 467 l 1
211 -204 m 2
 165 -204 140 -140 140 -89 c 0
 140 -49 146 -25 171 -12 c 0
 176 -9 192 -4 202 0 c 0
 229 7 232 5 244 15 c 1
 234 89 l 1
 126 89 l 1
 114 0 l 1
 25 0 l 1
 114 622 l 1
 246 622 l 1
 335 0 l 1
 308 0 l 2
 255 0 243 -24 229 -67 c 0
 227 -76 226 -84 226 -92 c 0
 226 -119 239 -143 262 -143 c 0
 279 -143 292 -134 308 -120 c 1
 335 -133 l 1
 330 -175 320 -204 273 -204 c 2
 211 -204 l 2
EndSplineSet
Validated: 1
EndChar

StartChar: Eogonek
Encoding: 280 280 52
Width: 360
VWidth: 799
Flags: W
HStem: 0 89<114 217.688 249.815 335> 267 88<114 335> 533 89<114 335>
VStem: 25 310<0 89 267 355 533 622> 25 89<89 267 355 533>
CounterMasks: 1 e0
LayerCount: 2
Fore
SplineSet
210.961 -204.392 m 2xf0
 167.405870017 -201.705325315 140.119 -139.075267151 140.119 -88.8633 c 0
 140.119 -60.4092 152 -38 174 -23 c 0
 190 -12 202.204465932 -3.58787246272 217.687706958 -1.7763568394e-15 c 2
 25 0 l 1
 25 622 l 1
 128.333007812 622 231.666992188 622 335 622 c 1
 335 533 l 1xf0
 114 533 l 1
 114 355 l 1xe8
 335 355 l 1
 335 267 l 1xf0
 114 267 l 1
 114 89 l 1xe8
 335 89 l 1
 335 0 l 1
 308.37 0 l 2
 255.314008047 0 242.792953257 -24.1326641745 228.671 -66.6445 c 1
 222.03696217 -106.5935125 230.724038033 -145.814647393 265.342 -142.472 c 0
 279.229 -141.131 293.571 -133.628 308.37 -119.963 c 1
 334.935 -133.29 l 1
 330.426590177 -174.877619692 319.9642156 -204.395737081 272.948 -204.392 c 2
 210.961 -204.392 l 2xf0
EndSplineSet
Validated: 33
EndChar

StartChar: Lslash
Encoding: 321 321 53
Width: 360
VWidth: 799
Flags: W
HStem: 0 89<114 335> 602 20G<25 114>
VStem: 25 89<89 622>
LayerCount: 2
Fore
SplineSet
0 133.301 m 5
 0 222.175 l 5
 221.381 399.902 l 5
 221.381 311.038 l 5
 0 133.301 l 5
  Named: "bar"
EndSplineSet
Refer: 12 76 N 1 0 0 1 0 0 2
Validated: 5
EndChar

StartChar: zero
Encoding: 48 48 56
Width: 361
VWidth: 799
Flags: W
HStem: 0 89<117.457 243.646> 533 89<118.889 242.112>
VStem: 25 89<92.4432 528.112> 247 89<92.2634 528.111>
LayerCount: 2
Fore
SplineSet
25 533 m 2
 25 576.885 70.1134 622 114 622 c 2
 247 622 l 2
 290.885 622 336 576.887 336 533 c 2
 336 89 l 2
 336 45.1151 290.887 0 247 0 c 6
 114 0 l 6
 70.1151 0 25 45.1134 25 89 c 2
 25 533 l 2
247 489 m 2
 247 515.396 229.4 533 203 533 c 2
 158 533 l 2
 131.604 533 114 515.4 114 489 c 2
 114 133 l 2
 114 103.448 126.405 89 158 89 c 2
 203 89 l 2
 235.15 89 247 102.394 247 133 c 2
 247 489 l 2
EndSplineSet
Validated: 1
EndChar

StartChar: one
Encoding: 49 49 57
Width: 228
VWidth: 799
Flags: W
HStem: 0 21G<114 203> 602 20G<94 203>
VStem: 114 89<0 507>
LayerCount: 2
Fore
SplineSet
114 622 m 1
 203 622 l 1
 203 0 l 1
 114 0 l 1
 114 507 l 1
 25 427 l 1
 25 533 l 1
 114 622 l 1
EndSplineSet
Validated: 1
EndChar

StartChar: two
Encoding: 50 50 58
Width: 361
VWidth: 799
Flags: W
HStem: 533.203 88.866<120.39 158.337 202.783 240.725>
VStem: 25 88.892<151.074 189.019 488.77 526.791> 247.229 88.891<391.106 426.562 488.77 526.744>
LayerCount: 2
Fore
SplineSet
25 0 m 5
 336.12 0 l 5
 336.12 177.734 l 5
 247.229 177.734 l 5
 247.229 88.8672 l 5
 113.892 88.8672 l 5
 113.892 151.074 l 6
 115.213 164.626 126.928 182.055 149.036 203.361 c 6
 295.787 331.627 l 6
 321 355 332.663 379.627 336.12 399.902 c 6
 335 533 l 6
 335 582.053710938 295.176757812 621.866210938 246.108398438 621.866210938 c 6
 113.892 622.069 l 6
 64.823640625 622.069 25 582.256835938 25 533.203 c 6
 25 444.336 l 5
 113.892 444.336 l 5
 113.892 488.77 l 6
 113.994516902 513.399591322 133.86717756 533.203 158.337 533.203 c 6
 202.783 533.203 l 6
 227.246933159 533.202148438 247.115099231 513.200319835 247.229 488.77 c 6
 247.229 426.562 l 6
 245.86 414.576 233.982 397.841 211.596 376.357 c 6
 64.0908 244.486 l 6
 40.8389 218.975 25 197 25 177.734 c 6
 25 0 l 5
EndSplineSet
Validated: 9
EndChar

StartChar: three
Encoding: 51 51 59
Width: 361
VWidth: 799
Flags: W
HStem: 0 89<118.888 242.111> 285 70<123 221.565> 444 21G<25 114> 533 89<118.889 242.112>
VStem: 25 89<93.8885 178 444 528.112> 247 89<93.8877 281.523 381.235 528.112>
LayerCount: 2
Fore
SplineSet
25 533 m 2
 25 576.885 70.1134 622 114 622 c 0
 158.333 622 202.667 622 247 622 c 0
 290.885 622 336 576.887 336 533 c 0
 336 491.667 336 450.333 336 409 c 0
 336 350 318 320 283 320 c 1
 318 320 336 290 336 231 c 0
 336 183.667 336 136.333 336 89 c 0
 336 45.1151 290.887 0 247 0 c 0
 202.667 -0 158.333 0 114 0 c 0
 70.1151 0 25 45.1134 25 89 c 2
 25 178 l 1
 114 178 l 1
 114 133 l 2
 114 106.604 131.6 89 158 89 c 2
 203 89 l 2
 229.396 89 247 106.6 247 133 c 0
 247 171.667 247 210.333 247 249 c 0
 247 274.885 234.537 285 208 285 c 1
 200 286 193 286 186 286 c 1
 180 285 170 285 157 285 c 0
 144 285 133 284 123 284 c 1
 123 355 l 1
 137 355 l 2
 154 355 166 355 173 356 c 1
 185.453 356 213.002 357.401 222 361 c 0
 229.997 364.999 241.3 371.751 245 381 c 0
 246 386 247 392 247 400 c 0
 247 429.667 247 459.333 247 489 c 0
 247 515.396 229.4 533 203 533 c 2
 158 533 l 2
 131.604 533 114 515.4 114 489 c 2
 114 444 l 1
 25 444 l 1
 25 533 l 2
EndSplineSet
Validated: 1
EndChar

StartChar: four
Encoding: 52 52 60
Width: 361
VWidth: 799
Flags: W
HStem: 0 21G<247 336> 178 89<114 247> 602 20G<192.972 292>
VStem: 247 89<0 178 267 314>
LayerCount: 2
Fore
SplineSet
336 329 m 1
 336 0 l 1
 247 0 l 1
 247 178 l 1
 25 178 l 1
 25 267 l 1
 203 622 l 1
 292 622 l 1
 114 267 l 1
 247 267 l 1
 247 314 l 1
 336 329 l 1
EndSplineSet
Validated: 1
EndChar

StartChar: five
Encoding: 53 53 61
Width: 361
VWidth: 799
Flags: W
HStem: 0 89<118.767 158 203 242.233> 302 71<118.484 239.743>
VStem: 25 89<93.7668 133 258 296.377> 247 89<93.7668 133 249 292.544>
LayerCount: 2
Fore
SplineSet
158 373 m 0
 142 373 127 371 114 367 c 1
 114 533 l 1
 336 533 l 1
 336 622 l 1
 25 622 l 1
 25 258 l 1
 114 258 l 1
 114 296 139 302 176 302 c 0
 214 302 247 297 247 258 c 0
 247 217 247 174 247 133 c 0
 247 106 230 89 203 89 c 2
 158 89 l 2
 131 89 114 106 114 133 c 2
 114 178 l 1
 25 178 l 1
 25 89 l 2
 25 45 70 0 114 0 c 0
 158 0 203 0 247 0 c 0
 291 0 336 45 336 89 c 0
 336 142 336 196 336 249 c 0
 336 328 279 370 202 373 c 0
 192 373 177 373 158 373 c 0
EndSplineSet
Validated: 9
EndChar

StartChar: six
Encoding: 54 54 62
Width: 361
VWidth: 799
Flags: W
HStem: 0 89<118.889 158 203 242.112> 302 71<118.194 166 176 242.035> 533 89<118.888 158 203 242.111>
VStem: 25 89<93.8877 133 258 297.428 489 528.111> 247 89<93.8885 133 249 293.725 489 528.112>
LayerCount: 2
Fore
SplineSet
336 533 m 0
 336 578.467 289.696 618.287 247 622 c 1
 202.667 622 158.333 622 114 622 c 0
 70.7034 622 25 576.294 25 533 c 2
 25 89 l 2
 25 45.7034 70.7059 0 114 0 c 0
 158.333 -0 202.667 0 247 0 c 0
 290.297 0 336 45.7059 336 89 c 0
 336 142.333 336 195.667 336 249 c 0
 336 314.956 293.224 355.952 237 368 c 0
 223 371 212 373 202 373 c 2
 158 373 l 2
 143 373 129 371 114 367 c 1
 114 489 l 2
 114 515.396 131.6 533 158 533 c 2
 203 533 l 2
 229.396 533 247 515.4 247 489 c 2
 247 444 l 1
 336 444 l 1
 336 473.667 336 503.333 336 533 c 0
114 258 m 0
 114 291.81 132.87 302 166 302 c 2
 176 302 l 2
 214.897 302 247 297.946 247 258 c 0
 247 216.333 247 174.667 247 133 c 0
 247 106.604 229.4 89 203 89 c 2
 158 89 l 2
 131.604 89 114 106.6 114 133 c 0
 114 174.667 114 216.333 114 258 c 0
EndSplineSet
Validated: 9
EndChar

StartChar: seven
Encoding: 55 55 63
Width: 329
VWidth: 799
Flags: W
VStem: 25 279
LayerCount: 2
Fore
SplineSet
25 622 m 1
 25 533 l 1
 216 533 l 1
 152 355 l 1
 65 355 l 1
 65 267 l 1
 120 267 l 1
 25 0 l 1
 114 0 l 1
 209 267 l 1
 236.667 267 264.333 267 292 267 c 1
 292 355 l 1
 275 355 258 355 241 355 c 1
 304 533 l 1
 304 622 l 1
 25 622 l 1
EndSplineSet
Validated: 9
EndChar

StartChar: eight
Encoding: 56 56 64
Width: 361
VWidth: 799
Flags: W
HStem: 0 89<119.607 158 203 242.112> 284 71<116.386 244.572> 533 89<118.888 158 203 242.111>
VStem: 25 89<95.1454 133 231 279.676 360.324 409 489 528.111> 247 89<93.8885 133 231 277.786 360.324 409 489 528.112>
LayerCount: 2
Fore
SplineSet
114 622 m 2
 73.0024 622 41.2316 588.579 29 558 c 0
 26 550 25 541 25 533 c 0
 25 491.667 25 450.333 25 409 c 0
 25 350 42 320 78 320 c 1
 42 320 25 290 25 231 c 0
 25 183.667 25 136.333 25 89 c 0
 25 72.6621 30.4196 59.9673 37 49 c 0
 50.5911 25.2156 79.3249 0 114 0 c 2
 247 0 l 2
 287.998 0 319.768 33.421 332 64 c 0
 335 72 336 81 336 89 c 0
 336 136.333 336 183.667 336 231 c 0
 336 290 319 320 283 320 c 1
 319 320 336 350 336 409 c 0
 336 450.333 336 491.667 336 533 c 0
 336 549.338 330.58 562.033 324 573 c 0
 310.409 596.784 281.675 622 247 622 c 2
 114 622 l 2
114 489 m 0
 114 515.396 131.6 533 158 533 c 2
 203 533 l 2
 229.396 533 247 515.4 247 489 c 0
 247 456.333 247 423.667 247 391 c 0
 247 358.671 219.162 355 181 355 c 0
 141.872 355 114 358.355 114 391 c 0
 114 423.667 114 456.333 114 489 c 0
181 284 m 0
 218.482 284 247 280.53 247 249 c 0
 247 210.333 247 171.667 247 133 c 0
 247 106.604 229.4 89 203 89 c 2
 158 89 l 1
 132.673 90.9482 114 106.166 114 133 c 0
 114 171.667 114 210.333 114 249 c 0
 114 282.118 141.393 284 181 284 c 0
EndSplineSet
Validated: 9
EndChar

StartChar: nine
Encoding: 57 57 65
Width: 361
VWidth: 799
Flags: W
HStem: 0 89<118.889 158 203 242.112> 249 71<118.393 241.097> 533 89<118.888 158 203 242.111>
VStem: 25 89<93.8877 133 324.604 373 489 528.111> 247 89<93.8885 133 327.789 364 489 528.112>
LayerCount: 2
Fore
SplineSet
25 89 m 0
 25 43.5334 71.3037 3.71272 114 0 c 1
 158.333 -0 202.667 0 247 0 c 0
 290.297 0 336 45.7059 336 89 c 2
 336 533 l 2
 336 576.297 290.294 622 247 622 c 0
 202.667 622 158.333 622 114 622 c 0
 70.7034 622 25 576.294 25 533 c 0
 25 479.667 25 426.333 25 373 c 0
 25 297.413 84.3931 249 158 249 c 0
 212.526 249 202.56 248.82 247 267 c 1
 247 133 l 2
 247 106.604 229.4 89 203 89 c 2
 158 89 l 2
 131.604 89 114 106.6 114 133 c 2
 114 178 l 1
 25 178 l 1
 25 148.333 25 118.667 25 89 c 0
203 533 m 2
 229.396 533 247 515.4 247 489 c 0
 247 447.333 247 405.667 247 364 c 0
 247 335 226 321 185 320 c 1
 167 320 l 2
 131.1 320 114 327.361 114 364 c 0
 114 405.667 114 447.333 114 489 c 0
 114 515.396 131.6 533 158 533 c 2
 203 533 l 2
EndSplineSet
Validated: 41
EndChar

StartChar: acute
Encoding: 180 180 66
Width: 227
VWidth: 799
Flags: W
HStem: 666 133
LayerCount: 2
Fore
SplineSet
114 799 m 1
 25 666 l 1
 114 666 l 1
 202 799 l 1
 114 799 l 1
EndSplineSet
Validated: 9
Substitution2: "Polish letters" acute.alt
EndChar

StartChar: ring
Encoding: 730 730 67
Width: 182
VWidth: 799
Flags: W
HStem: 666.503 44.426<75.969 106.865> 755.366 44.434<72.8017 110.028>
VStem: 25 44.2773<714.474 751.828> 113.554 44.276<717.641 748.643>
LayerCount: 2
Fore
SplineSet
91.415 799.8 m 4
 73.0762 799.8 57.4219 793.292 44.4531 780.277 c 4
 31.4844 767.262 25 751.552 25 733.148 c 4
 25 714.743 31.4844 699.034 44.4531 686.022 c 4
 57.4209 673.01 73.0752 666.503 91.415 666.503 c 4
 109.756 666.503 125.41 673.01 138.378 686.022 c 4
 151.346 699.037 157.83 714.746 157.83 733.148 c 4
 157.83 751.553 151.346 767.262 138.377 780.277 c 4
 125.409 793.292 109.755 799.8 91.415 799.8 c 4
91.415 755.366 m 4
 97.5234 755.366 102.741 753.193 107.066 748.847 c 4
 111.393 744.5 113.555 739.268 113.554 733.148 c 4
 113.554 727.018 111.392 721.781 107.068 717.439 c 4
 102.745 713.088 97.5273 710.918 91.415 710.929 c 4
 85.3066 710.939 80.0908 713.113 75.7656 717.449 c 4
 71.4404 721.796 69.2773 727.029 69.2773 733.148 c 4
 69.2773 739.284 71.4385 744.521 75.7617 748.859 c 4
 80.084 753.197 85.3018 755.366 91.415 755.366 c 4
EndSplineSet
Validated: 9
EndChar

StartChar: dieresis
Encoding: 168 168 68
Width: 310
VWidth: 799
Flags: W
HStem: 667 88
LayerCount: 2
Fore
SplineSet
0 755 m 1
 0 667 l 1
 89 667 l 1
 89 755 l 1
 0 755 l 1
221 755 m 5
 221 667 l 5
 310 667 l 5
 310 755 l 5
 221 755 l 5
EndSplineSet
Validated: 9
EndChar

StartChar: asciicircum
Encoding: 94 94 69
Width: 360
VWidth: 799
Flags: W
LayerCount: 2
Fore
SplineSet
114 800 m 5
 25 667 l 5
 114 667 l 5
 180 766 l 5
 246 667 l 5
 335 667 l 5
 246 800 l 5
 202 800 l 5
 158 800 l 5
 114 800 l 5
EndSplineSet
Validated: 9
EndChar

StartChar: caron
Encoding: 711 711 70
Width: 359
VWidth: 799
Flags: W
LayerCount: 2
Fore
SplineSet
25 799.8 m 1
 113.553 666.503 l 1
 246.382 666.503 l 1
 334.935 799.8 l 1
 246.382 799.8 l 1
 179.968 699.82 l 1
 113.553 799.8 l 1
 25 799.8 l 1
EndSplineSet
Validated: 9
EndChar

StartChar: acute.alt
Encoding: 1114112 -1 71
Width: 182
VWidth: 799
Flags: W
HStem: 666.503 133.297
LayerCount: 2
Fore
SplineSet
69.2764 799.8 m 5
 25 666.503 l 5
 113.554 666.503 l 5
 157.829 799.8 l 5
 69.2764 799.8 l 5
EndSplineSet
Validated: 1
EndChar

StartChar: dotabove
Encoding: 775 775 73
Width: 138
VWidth: 799
Flags: W
HStem: 710.929 88.871
VStem: 25 88.552
LayerCount: 2
Fore
SplineSet
25 799.8 m 5
 25 710.929 l 5
 113.552 710.929 l 5
 113.552 799.8 l 5
 25 799.8 l 5
EndSplineSet
Validated: 1
EndChar

StartChar: emdash
Encoding: 8212 8212 74
Width: 359
VWidth: 799
UnlinkRmOvrlpSave: 1
Flags: W
HStem: 266.601 88.863<25 334.934>
VStem: 25 309.934<266.601 355.464>
LayerCount: 2
Fore
SplineSet
25 355.464 m 5
 334.934 355.464 l 1
 334.934 266.601 l 1
 231.622 266.601 128.311 266.601 25 266.601 c 1
 25 355.464 l 5
EndSplineSet
EndChar

StartChar: grave
Encoding: 96 96 81
Width: 227
VWidth: 799
Flags: W
HStem: 666 133.297
LayerCount: 2
Fore
SplineSet
112.554 666 m 1
 201.105 666 l 1
 112.554 799.297 l 1
 24 799.297 l 1
 112.554 666 l 1
EndSplineSet
Validated: 9
EndChar

StartChar: Idieresis
Encoding: 207 207 87
Width: 138
VWidth: 0
HStem: 0 21G<25 113.553> 602.066 20G<25 113.553>
VStem: 25 88.553<0 622.066>
LayerCount: 2
Fore
SplineSet
-65.6904296875 770.563476562 m 1
 -65.6904296875 682.563476562 l 1
 23.3095703125 682.563476562 l 1
 23.3095703125 770.563476562 l 1
 -65.6904296875 770.563476562 l 1
115.309570312 770.563476562 m 1
 115.309570312 682.563476562 l 1
 204.309570312 682.563476562 l 1
 204.309570312 770.563476562 l 1
 115.309570312 770.563476562 l 1
EndSplineSet
Refer: 9 73 N 1 0 0 1 0 0 3
Validated: 1
EndChar

StartChar: c
Encoding: 99 99 93
Width: 360
VWidth: 799
Flags: W
HStem: 0 73<117.026 242.974> 371 73<118.968 240.756>
VStem: 25 89<76.6365 365.309> 246 89<77.7085 136 305 365.309>
LayerCount: 2
Back
Refer: 2 66 S 1 0 0 1 0 0 2
Fore
SplineSet
246 136 m 1
 335 136 l 1
 335 88 l 2
 335 44 290 0 246 -0 c 2
 114 0 l 2
 70 0 25 45 25 89 c 2
 25 355 l 2
 25 399 70 444 114 444 c 2
 246 444 l 2
 290 444 335 399 335 355 c 2
 335 305 l 1
 246 305 l 1
 246 326 l 2
 246 353 229 371 202 371 c 2
 158 371 l 2
 132 371 114 354 114 327 c 2
 114 117 l 2
 114 86 126 73 158 73 c 2
 202 73 l 2
 234 73 246 86 246 117 c 2
 246 136 l 1
246 444 m 1026
202 355 m 1026
EndSplineSet
Validated: 1
EndChar

StartChar: o
Encoding: 111 111 94
Width: 360
VWidth: 799
Flags: W
HStem: 0 73<119.832 158 202 240.168> 371 73<119.832 158 202 240.168>
VStem: 25 89<79.9045 117 327 364.096> 246 89<79.9045 117 327 364.096>
LayerCount: 2
Fore
SplineSet
114 327 m 6
 114 351.288085938 133.711914062 371 158 371 c 6
 202 371 l 6
 226.288085938 371 246 351.288085938 246 327 c 6
 246 117 l 6
 246 92.7119140625 226.288085938 73 202 73 c 6
 158 73 l 6
 133.711914062 73 114 92.7119140625 114 117 c 6
 114 327 l 6
114 444 m 6
 64.8720703125 444 25 404.127929688 25 355 c 6
 25 89 l 6
 25 39.8720703125 64.8720703125 0 114 0 c 6
 246 0 l 6
 295.127929688 0 335 39.8720703125 335 89 c 6
 335 355 l 6
 335 404.127929688 295.127929688 444 246 444 c 6
 114 444 l 6
EndSplineSet
Validated: 9
EndChar

StartChar: n
Encoding: 110 110 95
Width: 360
VWidth: 799
Flags: W
HStem: 0 21G<25 114 246 335> 371 73<118.968 241.032>
VStem: 25 89<0 365.756> 246 89<0 365.309>
LayerCount: 2
Fore
SplineSet
246 444 m 2
 290 444 335 399 335 355 c 2
 335 355 335 118 335 0 c 1
 246 0 l 1
 246 327 l 2
 246 354 228 371 202 371 c 2
 158 371 l 2
 132 371 114 354 114 327 c 2
 114 327 114 109 114 0 c 1
 25 0 l 1
 25 444 l 1
 246 444 l 2
EndSplineSet
Validated: 1
EndChar

StartChar: e
Encoding: 101 101 96
Width: 360
VWidth: 799
Flags: W
HStem: 0 73<117.026 242.974> 187 69<114 246> 371 73<118.968 240.756>
VStem: 25 89<76.6365 187 256 365.309> 246 89<77.7085 136 256 365.309>
LayerCount: 2
Fore
SplineSet
158 371 m 2
 132 371 114 354 114 327 c 2
 114 256 l 1
 246 256 l 1
 246 326 l 2
 246 353 229 371 202 371 c 2
 158 371 l 2
335 187 m 1
 114 187 l 1
 114 117 l 6
 114 86 126 73 158 73 c 6
 202 73 l 6
 234 73 246 86 246 117 c 6
 246 136 l 1
 335 136 l 1
 335 88 l 2
 335 44 290 0 246 -0 c 2
 246 -0 114 0 114 0 c 2
 70 0 25 45 25 89 c 2
 25 355 l 2
 25 399 70 444 114 444 c 2
 246 444 l 2
 290 444 335 399 335 355 c 2
 335 187 l 1
EndSplineSet
Validated: 1
EndChar

StartChar: a
Encoding: 97 97 97
Width: 360
VWidth: 799
Flags: W
HStem: -0 69<117.026 158> 184 73<119.244 158 199 240.986> 371 73<117.026 158 202 242.804>
VStem: 25 89<72.543 113 139 178.309 327 367.363> 246 89<140 178.756 328 367.363>
LayerCount: 2
Fore
SplineSet
158 69 m 2
 126 69 114 82 114 113 c 2
 114 139 l 2
 114 166 131 184 158 184 c 2
 202 184 l 2
 228 184 246 167 246 140 c 2
 246 69 l 1
 158 69 l 2
246 238 m 1025
335 0 m 1
 335 355 l 2
 335 399 290 444 246 444 c 2
 114 444 l 2
 70 444 25 399 25 355 c 2
 25 308 l 1
 114 308 l 1
 114 327 l 2
 114 358 126 371 158 371 c 2
 202 371 l 2
 233 371 246 358 246 328 c 2
 246 238 l 1
 233 250 217 257 199 257 c 2
 114 257 l 2
 70 257 25 212 25 168 c 2
 25 89 l 2
 25 45 70 0 114 -0 c 2
 335 0 l 1
EndSplineSet
Validated: 9
EndChar

StartChar: d
Encoding: 100 100 98
Width: 360
VWidth: 799
Flags: W
HStem: 0 73<117.026 158 202 243.056> 371 73<118.968 158 202 241.234>
VStem: 25 89<76.6365 117 327 365.309> 246 89<76.3142 109 334 366.008>
LayerCount: 2
Fore
SplineSet
202 371 m 6
 226 371 243 356 246 334 c 5
 246 109 l 5
 244 84 231 73 202 73 c 6
 158 73 l 6
 126 73 114 86 114 117 c 6
 114 327 l 6
 114 354 132 371 158 371 c 6
 202 371 l 6
25 89 m 4
 25 45 70 0 114 0 c 4
 188 0 261 0 335 0 c 5
 335 81 l 6
 335 84 335 86 335 89 c 4
 335 178 335 266 335 355 c 4
 335 358 335 360 335 363 c 6
 335 622 l 5
 246 622 l 5
 246 444 l 5
 202 444 158 444 114 444 c 4
 70 444 25 399 25 355 c 4
 25 266 25 178 25 89 c 4
EndSplineSet
Validated: 9
EndChar

StartChar: b
Encoding: 98 98 99
Width: 360
VWidth: 799
Flags: W
HStem: 0 73<118.81 242.974> 371 73<121.006 241.032> 602 20G<25 114>
VStem: 25 89<77.6835 364.095 444 622> 246 89<76.6365 365.309>
LayerCount: 2
Fore
SplineSet
158 371 m 2
 134 371 114 349 114 327 c 2
 114 117 l 2
 114 92 129 73 158 73 c 2
 202 73 l 2
 234 73 246 86 246 117 c 2
 246 327 l 2
 246 354 228 371 202 371 c 2
 158 371 l 2
25 622 m 1
 114 622 l 1
 114 444 l 1
 158 444 246 444 246 444 c 2
 290 444 335 399 335 355 c 2
 335 89 l 2
 335 45 290 0 246 0 c 2
 246 0 99 0 25 0 c 1
 25 622 l 1
EndSplineSet
Validated: 1
EndChar

StartChar: q
Encoding: 113 113 100
Width: 360
VWidth: 799
Flags: W
HStem: -178 21G<246 335> 0 73<118.968 242.5> 371 73<117.026 243.857>
VStem: 25 89<78.6911 367.363> 246 89<-178 0 77.9924 368.013>
LayerCount: 2
Fore
SplineSet
202 73 m 2
 226 73 246 88 246 110 c 2
 246 335 l 2
 246 360 231 371 202 371 c 2
 158 371 l 2
 126 371 114 358 114 327 c 2
 114 117 l 2
 114 90 132 73 158 73 c 2
 202 73 l 2
335 -178 m 1
 246 -178 l 1
 246 0 l 1
 114 0 l 2
 70 0 25 45 25 89 c 2
 25 355 l 2
 25 399 70 444 114 444 c 2
 335 444 l 1
 335 -178 l 1
EndSplineSet
Validated: 1
EndChar

StartChar: p
Encoding: 112 112 101
Width: 360
VWidth: 799
Flags: W
HStem: 0 73<117.5 158 202 241.032> 371 73<116.143 158 202 242.974>
VStem: 25 89<77.9924 110 335 368.013> 246 89<78.6911 117 327 367.363>
LayerCount: 2
Fore
SplineSet
158 73 m 2
 134 73 114 88 114 110 c 2
 114 335 l 2
 114 360 129 371 158 371 c 2
 202 371 l 2
 234 371 246 358 246 327 c 2
 246 117 l 2
 246 90 228 73 202 73 c 2
 158 73 l 2
25 -178 m 1
 114 -178 l 1
 114 0 l 1
 158 0 246 0 246 0 c 2
 290 0 335 45 335 89 c 2
 335 355 l 2
 335 399 290 444 246 444 c 2
 246 444 99 444 25 444 c 1
 25 -178 l 1
EndSplineSet
Validated: 9
EndChar

StartChar: r
Encoding: 114 114 102
Width: 360
VWidth: 799
Flags: W
HStem: 0 21G<25 114> 371 73<118.968 241.032>
VStem: 25 89<0 365.756> 246 89<311 365.309>
LayerCount: 2
Fore
SplineSet
246 444 m 6
 290 444 335 399 335 355 c 6
 335 311 l 5
 305 311 276 311 246 311 c 5
 246 327 l 6
 246 354 228 371 202 371 c 6
 158 371 l 6
 132 371 114 354 114 327 c 4
 114 218 114 109 114 0 c 5
 25 0 l 5
 25 444 l 5
 246 444 l 6
EndSplineSet
Validated: 1
EndChar

StartChar: h
Encoding: 104 104 103
Width: 360
VWidth: 799
Flags: W
HStem: 0 21G<25 114 246 335> 371 73<118.968 241.032> 602 20G<25 114>
VStem: 25 89<0 365.756 444 622> 246 89<0 365.309>
LayerCount: 2
Fore
SplineSet
246 444 m 2
 290 444 335 399 335 355 c 2
 335 355 335 118 335 0 c 1
 246 0 l 1
 246 327 l 2
 246 354 228 371 202 371 c 2
 158 371 l 2
 132 371 114 354 114 327 c 2
 114 327 114 109 114 0 c 1
 25 0 l 1
 25 207 25 415 25 622 c 1
 114 622 l 1
 114 444 l 1
 246 444 l 2
EndSplineSet
Validated: 1
EndChar

StartChar: u
Encoding: 117 117 144
Width: 360
VWidth: 799
Flags: W
HStem: 0 73<118.968 241.032> 424 20G<25 114 246 335>
VStem: 25 89<78.6911 444> 246 89<78.2437 444>
LayerCount: 2
Fore
SplineSet
114 0 m 2
 70 0 25 45 25 89 c 2
 25 89 25 326 25 444 c 1
 114 444 l 1
 114 117 l 2
 114 90 132 73 158 73 c 2
 202 73 l 2
 228 73 246 90 246 117 c 2
 246 117 246 335 246 444 c 1
 335 444 l 1
 335 0 l 1
 114 0 l 2
EndSplineSet
Validated: 1
EndChar

StartChar: dotlessi
Encoding: 305 305 146
Width: 139
VWidth: 799
Flags: W
HStem: 0 21G<25 114> 424 20G<25 114>
VStem: 25 89<0 444>
LayerCount: 2
Fore
SplineSet
114 0 m 1025,0,-1
25 444 m 1,1,-1
 114 444 l 1,2,-1
 114 0 l 1,3,-1
 25 0 l 1,4,-1
 25 444 l 1,1,-1
EndSplineSet
Validated: 1
EndChar

StartChar: idieresis
Encoding: 239 239 164
Width: 139
VWidth: 0
Flags: W
HStem: 0 21G<25 114> 424 20G<25 114>
VStem: 25 89<0 444>
LayerCount: 2
Fore
SplineSet
-65.9677734375 592.8359375 m 1
 -65.9677734375 504.8359375 l 1
 23.0322265625 504.8359375 l 1
 23.0322265625 592.8359375 l 1
 -65.9677734375 592.8359375 l 1
116.032226562 592.8359375 m 1
 116.032226562 504.8359375 l 1
 205.032226562 504.8359375 l 1
 205.032226562 592.8359375 l 1
 116.032226562 592.8359375 l 1
EndSplineSet
Refer: 146 305 N 1 0 0 1 0 0 3
Validated: 1
EndChar

StartChar: five.alt
Encoding: 1114115 -1 172
Width: 361
VWidth: 799
Flags: W
HStem: 0 89<118.767 242.233> 302 71<118.336 239.743> 533 89<114 336>
VStem: 25 89<93.7668 178 291 296.549 367 533> 247 89<93.7668 292.544>
LayerCount: 2
Fore
SplineSet
25 622 m 1
 336 622 l 1
 336 533 l 1
 114 533 l 1
 114 367 l 1
 127 371 142 373 158 373 c 2
 202 373 l 1
 279 370 336 328 336 249 c 2
 336 89 l 2
 336 45 291 0 247 0 c 2
 114 0 l 2
 70 0 25 45 25 89 c 2
 25 178 l 1
 114 178 l 1
 114 133 l 2
 114 106 131 89 158 89 c 2
 203 89 l 2
 230 89 247 106 247 133 c 2
 247 258 l 2
 247 297 214 302 176 302 c 0
 143 302 120 297 115 270 c 9
 25 291 l 17
 25 622 l 1
EndSplineSet
Validated: 1
EndChar

StartChar: f
Encoding: 102 102 173
Width: 360
VWidth: 799
Flags: W
HStem: 549 73<228.968 268>
VStem: 135 89<505 543.309>
LayerCount: 2
Fore
SplineSet
224 622 m 2
 180 622 135 577 135 533 c 2
 135 444 l 1
 25 444 l 1
 25 371 l 1
 135 371 l 1
 135 1 l 25
 224 1 l 25
 224 371 l 1
 335 371 l 1
 335 444 l 25
 224 444 l 1
 224 505 l 2
 224 532 242 549 268 549 c 2
 335 549 l 1
 335 622 l 1
 224 622 l 2
EndSplineSet
Validated: 9
EndChar

StartChar: g
Encoding: 103 103 174
Width: 360
VWidth: 799
Flags: W
HStem: -205 89<117.355 242.646> 0 73<118.968 238.994> 371 73<117.026 241.19>
VStem: 25 89<-112.735 -71 78.6911 367.363> 246 89<-112.737 0 79.9052 366.316>
LayerCount: 2
Fore
SplineSet
335 -116 m 2
 335 -159.885 290.373 -205 246 -205 c 2
 114 -205 l 2
 69.6152 -205 25 -159.887 25 -116 c 2
 25 -71 l 1
 114 -71 l 1
 114 -72 l 2
 114 -102.595 125.854 -116 158 -116 c 2
 202 -116 l 2
 234.15 -116 246 -102.606 246 -72 c 2
 246 0 l 1
 114 0 l 2
 70 0 25 45 25 89 c 2
 25 355 l 2
 25 399 70 444 114 444 c 2
 335 444 l 1
 335 -116 l 2
202 73 m 2
 226 73 246 95 246 117 c 2
 246 327 l 2
 246 352 231 371 202 371 c 2
 158 371 l 2
 126 371 114 358 114 327 c 2
 114 117 l 2
 114 90 132 73 158 73 c 2
 202 73 l 2
EndSplineSet
Validated: 1
EndChar

StartChar: uni0237
Encoding: 567 567 176
Width: 246
VWidth: 799
Flags: W
HStem: -205 89<25 124.688> 424 20G<132 221>
VStem: 132 89<-107.266 444>
LayerCount: 2
Fore
SplineSet
25 -116 m 2
 87 -116 l 6
 95 -116 132 -104 132 -72 c 6
 132 0 l 5
 132 444 l 5
 221 444 l 5
 221 -116 l 6
 221 -160 176 -205 132 -205 c 4
 25 -205 l 1
 25 -116 l 2
EndSplineSet
Validated: 1
EndChar

StartChar: t
Encoding: 116 116 177
Width: 360
VWidth: 799
Flags: W
HStem: 0 73<228.968 335> 371 73<25 135 224 335> 601 20G<135 224>
VStem: 135 89<78.6911 371 444 621>
LayerCount: 2
Fore
SplineSet
224 0 m 2
 180 0 135 45 135 89 c 2
 135 371 l 1
 25 371 l 1
 25 444 l 1
 135 444 l 1
 135 621 l 25
 224 621 l 25
 224 444 l 1
 335 444 l 1
 335 371 l 25
 224 371 l 1
 224 117 l 2
 224 90 242 73 268 73 c 2
 335 73 l 1
 335 0 l 1
 224 0 l 2
EndSplineSet
Validated: 1
EndChar

StartChar: l
Encoding: 108 108 187
Width: 250
VWidth: 799
Flags: W
HStem: 0 73<118.968 225> 601 20G<25 114>
VStem: 25 89<78.6911 621>
LayerCount: 2
Fore
SplineSet
114 117 m 2
 114 90 132 73 158 73 c 2
 225 73 l 1
 225 0 l 1
 114 0 l 2
 70 0 25 45 25 89 c 2
 25 621 l 2
 114 621 l 2
 114 117 l 2
EndSplineSet
Validated: 1
EndChar

StartChar: ae
Encoding: 230 230 188
Width: 581
VWidth: 799
Flags: W
HStem: -0 69<117.026 158 340.021 379 423 461.979> 187 69<120.803 158 199 239.036> 371 73<117.026 158 202 242.804 339.968 379 423 461.756>
VStem: 25 89<72.543 113 139 178.309 327 367.363> 246 89<76.1962 117 140 178.756 327 365.756> 467 89<77.7085 117 326 365.309>
CounterMasks: 1 1c
LayerCount: 2
Fore
SplineSet
158 69 m 2
 126 69 114 82 114 113 c 2
 114 139 l 2
 114 166 131 184 158 184 c 2
 202 184 l 2
 228 184 246 167 246 140 c 2
 246 89 l 1
 246 69 l 1
 158 69 l 2
467 444 m 0
 423 444 379 444 335 444 c 0
 319.635749693 444 304.149567471 438.513063824 290.5 429.497738137 c 1
 276.850432529 438.513063824 261.364250307 444 246 444 c 0
 201 444 158 444 114 444 c 0
 70 444 25 399 25 355 c 2
 25 308 l 1
 114 308 l 1
 114 327 l 2
 114 358 126 371 158 371 c 2
 202 371 l 2
 233 371 246 358 246 328 c 2
 246 238 l 1
 233 250 217 257 199 257 c 2
 114 257 l 2
 70 257 25 212 25 168 c 2
 25 89 l 2
 25 45 70 0 114 -0 c 0
 166 0 195 -1 247 0 c 0
 276 0 306 0 335 0 c 0
 380 0 423 0 467 0 c 0
 511 0 556 44 556 88 c 2
 556 136 l 1
 467 136 l 1
 467 117 l 2
 467 86 455 73 423 73 c 2
 379 73 l 2
 347 73 335 86 335 117 c 2
 335 187 l 1
 556 187 l 1
 556 265 l 1
 556 355 l 2
 556 399 511 444 467 444 c 0
379 371 m 2
 423 371 l 2
 450 371 467 353 467 326 c 2
 467 256 l 1
 335 256 l 1
 335 327 l 2
 335 354 353 371 379 371 c 2
EndSplineSet
Validated: 41
EndChar

StartChar: s
Encoding: 115 115 189
Width: 360
VWidth: 799
Flags: W
HStem: 0 73<117.026 158 202 242.974> 187 69<117.026 158 202 242.974> 371 73<118.968 158 202 240.756>
VStem: 25 89<76.6365 117 259.543 300 327 365.309> 246 89<77.7085 117 143 182.38 326 365.309>
LayerCount: 2
Fore
SplineSet
114 130 m 25
 25 130 l 25
 25 89 l 2
 25 45 70 0 114 0 c 2
 246 -0 l 2
 290 0 335 44 335 88 c 2
 335 168 l 2
 335 212 290 256 246 256 c 2
 158 256 l 2
 126 256 114 269 114 300 c 2
 114 327 l 2
 114 354 132 371 158 371 c 2
 202 371 l 2
 229 371 246 353 246 326 c 2
 246 313 l 1
 335 313 l 1
 335 355 l 2
 335 399 290 444 246 444 c 2
 114 444 l 2
 70 444 25 399 25 355 c 2
 25 276 l 2
 25 232 70 187 114 187 c 2
 202 187 l 2
 234 187 246 174 246 143 c 2
 246 117 l 2
 246 86 234 73 202 73 c 2
 158 73 l 2
 126 73 114 86 114 117 c 2
 114 130 l 25
EndSplineSet
Validated: 9
EndChar

StartChar: z
Encoding: 122 122 192
Width: 360
VWidth: 799
Flags: W
HStem: 0 89<114 335> 356 89<25 246>
VStem: 25 310<0 89 356 445>
LayerCount: 2
Fore
SplineSet
114 89 m 1
 335 89 l 1
 335 0 l 1
 25 0 l 1
 25 89 l 1
 246 356 l 1
 25 356 l 1
 25 445 l 1
 335 445 l 1
 335 356 l 1
 114 89 l 1
EndSplineSet
Validated: 1
EndChar

StartChar: IJ
Encoding: 306 306 196
Width: 360
VWidth: 0
Flags: W
HStem: 0 89<117.355 242.646> 602.066 19.9336G<25 113.553 246 335>
VStem: 25 88.5527<92.2653 178 260 622.066> 246 89<92.2633 622>
LayerCount: 2
Fore
SplineSet
25 260 m 1
 25 622.06640625 l 1
 113.552734375 622.06640625 l 1
 113.552734375 260 l 1
 25 260 l 1
246 622 m 1
 335 622 l 1
 335 89 l 2
 335 45.115234375 290.373046875 0 246 0 c 0
 202 0 158 0 114 0 c 0
 69.615234375 0 25 45.11328125 25 89 c 2
 25 178 l 1
 114 178 l 1
 114 133 l 2
 114 102.405273438 125.853515625 89 158 89 c 2
 202 89 l 2
 234.150390625 89 246 102.393554688 246 133 c 2
 246 622 l 1
EndSplineSet
Validated: 1
Ligature2: "'liga' Standard Ligatures lookup-1" I J
EndChar

StartChar: Lcaron.alt
Encoding: 1114116 -1 197
Width: 359
VWidth: 799
Flags: W
VStem: 25 309.935
LayerCount: 2
Fore
SplineSet
25 799.8 m 1
 113.553 666.503 l 1
 157.829 666.503 l 1
 202.106 666.503 l 1
 246.382 666.503 l 1
 334.935 799.8 l 1
 246.382 799.8 l 1
 179.967 699.82 l 1
 113.553 799.8 l 1
 25 799.8 l 1
25 622.066 m 1
 25 88.874 l 1
 25 0 l 1
 113.553 0 l 1
 334.935 0 l 1
 334.935 88.874 l 1
 113.553 88.874 l 1
 113.553 622.066 l 1
 25 622.066 l 1
EndSplineSet
Validated: 9
EndChar

StartChar: caron.alt
Encoding: 1114117 -1 201
Width: 137
VWidth: 799
Flags: W
VStem: 33.75 79<525.183 577>
LayerCount: 2
Fore
SplineSet
33.75 649 m 1
 33.75 577 l 2
 33.75 558.100016276 33.25 533.75 25 524.75 c 9
 100.834960938 492.631835938 l 1
 111.25 501.75 112.75 519.166015625 112.75 533 c 2
 112.75 649 l 1
 33.75 649 l 1
EndSplineSet
Validated: 9
EndChar

StartChar: uniFB01
Encoding: 64257 64257 203
Width: 499
VWidth: 0
Flags: W
HStem: 549 73<228.968 268>
VStem: 135 89<505 543.309>
LayerCount: 2
Fore
SplineSet
384.723632812 593.209960938 m 1
 384.723632812 504.338867188 l 1
 473.276367188 504.338867188 l 1
 473.276367188 593.209960938 l 1
 384.723632812 593.209960938 l 1
474 0 m 1025
385 0 m 1
 474 0 l 1
 474 444 l 1
 224 444 l 1
 224 505 l 2
 224 532 242 549 268 549 c 2
 335 549 l 1
 335 622 l 1
 224 622 l 2
 180 622 135 577 135 533 c 2
 135 444 l 1
 25 444 l 1
 25 371 l 1
 135 371 l 1
 135 1 l 1
 224 1 l 1
 224 371 l 1
 277.666666667 371 331.333333333 371 385 371 c 1
 385 0 l 1
EndSplineSet
Validated: 9
Ligature2: "'liga' Standard Ligatures lookup-1" f i
EndChar

StartChar: m
Encoding: 109 109 233
Width: 581
VWidth: 799
Flags: W
HStem: 0 21G<25 114 246 335 467 556> 371 73<118.968 241.032 339.968 462.032>
VStem: 25 89<0 365.756> 246 89<0 365.756> 467 89<0 365.309>
CounterMasks: 1 38
LayerCount: 2
Fore
SplineSet
379 371 m 1026,0,-1
335 0 m 1,1,-1
 305.333333333 -0 275.666666667 0 246 0 c 1,4,-1
 246 109 246 327 246 327 c 2,7,-1
 246 354 228 371 202 371 c 2,10,-1
 158 371 l 2,11,-1
 132 371 114 354 114 327 c 2,14,-1
 114 327 114 109 114 0 c 1,17,-1
 25 0 l 1,18,-1
 25 444 l 1,19,-1
 467 444 l 2,20,-1
 511 444 556 399 556 355 c 2,23,-1
 556 0 l 1,24,-1
 526.333333333 -0 496.666666667 0 467 0 c 1,27,-1
 467 109 467 327 467 327 c 2,30,-1
 467 354 449 371 423 371 c 2,33,-1
 379 371 l 2,34,-1
 353 371 335 354 335 327 c 2,37,-1
 335 0 l 1,1,-1
EndSplineSet
Validated: 1
EndChar

StartChar: mu
Encoding: 181 181 234
Width: 360
VWidth: 799
Flags: W
HStem: 1 72<118.968 158 202 241.032>
VStem: 25 89<78.2437 117> 246 89<78.2437 117>
LayerCount: 2
Fore
SplineSet
246 0 m 25
 335 0 l 1
 335 444 l 1
 246 444 l 1
 246 117 l 2
 246 90 228 73 202 73 c 2
 158 73 l 2
 132 73 114 90 114 117 c 2
 114 117 114 335 114 444 c 1
 25 444 l 1
 25 -178 l 1
 114 -178 l 9
 116 3.76972698444 l 1
 121.128932663 1.95427459088 126.839931134 1 133 1 c 2
 228 1 l 2
 234.563428898 1 240.617051891 2.08333754619 246 4.13740435193 c 1
 246 0 l 25
EndSplineSet
Validated: 9
EndChar

StartChar: y
Encoding: 121 121 235
Width: 360
VWidth: 799
Flags: W
HStem: -205 89<117.355 242.646> 0 73<118.968 238.994> 424 20G<25 114 246 335>
VStem: 25 89<-112.735 -71 78.6911 444> 246 89<-112.737 0 79.9052 444>
LayerCount: 2
Fore
SplineSet
335 -116 m 18
 335 -159.885 290.373 -205 246 -205 c 2
 114 -205 l 2
 69.6152 -205 25 -159.887 25 -116 c 2
 25 -71 l 1
 114 -71 l 1
 114 -72 l 2
 114 -102.595 125.854 -116 158 -116 c 2
 202 -116 l 2
 234.15 -116 246 -102.606 246 -72 c 2
 246 0 l 1
 202 0 114 0 114 0 c 2
 70 0 25 45 25 89 c 2
 25 444 l 1
 114 444 l 1
 114 117 l 2
 114 90 132 73 158 73 c 2
 202 73 l 2
 226 73 246 95 246 117 c 2
 246 444 l 1
 335 444 l 1
 335 -116 l 18
EndSplineSet
Validated: 1
EndChar

StartChar: longs
Encoding: 383 383 238
Width: 246
VWidth: 799
Flags: W
HStem: 0 21G<25 114> 533 89<117.218 221>
VStem: 25 89<0 529.432>
LayerCount: 2
Fore
SplineSet
114 0 m 1
 25 0 l 1
 25 533 l 2
 25 577 70 622 114 622 c 2
 221 622 l 1
 221 533 l 2
 159 533 l 2
 127 533 114 520 114 489 c 2
 114 0 l 1
EndSplineSet
Validated: 1
EndChar

StartChar: germandbls
Encoding: 223 223 239
Width: 246
VWidth: 799
Flags: W
HStem: 0 73<249.026 290 334 374.974> 187 69<249.026 290 334 374.974> 351 74<251.371 297.974> 533 89<159.605 204 247 290.17>
VStem: 25 89<446 488.944> 157 89<76.6365 117 259.543 300 307 346.458> 301 89<428.708 468 479 522.298> 378 89<77.7085 117 143 182.38>
LayerCount: 2
Fore
SplineSet
246 307 m 2xfd
 246 338 258 351 290 351 c 2
 301 351 l 17
 345 351 390 395 390 439 c 2
 390 516 l 2
 390 560 330 622 286 622 c 2
 159 622 l 2
 115 622 25 534 25 490 c 2
 25 0 l 1
 114 0 l 1
 114 446 l 2
 114 477 172 533 204 533 c 2
 247 532.999023438 l 2
 279 532.999023438 301 510 301 479 c 2
 301 468 l 2xfe
 301 437 289 425 257 425 c 2
 196.280273438 425 157 384.6796875 157 335 c 2
 157 276 l 2
 157 232 202 187 246 187 c 2
 334 187 l 2
 366 187 378 174 378 143 c 2
 378 117 l 2
 378 86 366 73 334 73 c 2
 290 73 l 2
 258 73 246 86 246 117 c 2
 246 130 l 25
 157 130 l 25
 157 89 l 2
 157 45 202 0 246 0 c 2
 378 0 l 2
 422 0 467 44 467 88 c 2
 467 168 l 2
 467 212 422 256 378 256 c 2
 290 256 l 2
 258 256 246 269 246 300 c 2
 246 307 l 2xfd
EndSplineSet
Validated: 9
EndChar

StartChar: question
Encoding: 63 63 240
Width: 361
VWidth: 799
Flags: W
HStem: 533 89<119.895 158 203 240.56>
VStem: 25 89<489 526.793> 130 89<242 280.077> 247 89<391.5 427 489 526.56>
LayerCount: 2
Fore
SplineSet
130 89 m 1
 130 0 l 1
 219 0 l 1
 219 89 l 1
 130 89 l 1
219 180 m 1
 219 242 l 2
 220 256 232 273 254 294 c 2
 296 332 l 2
 301 336 333 380 336 400 c 2
 335 533 l 2
 335 582 295 622 246 622 c 2
 114 622 l 2
 65 622 25 582 25 533 c 2
 25 444 l 1
 114 444 l 1
 114 489 l 2
 114 514 134 533 158 533 c 2
 203 533 l 2
 227 533 247 513 247 489 c 2
 247 427 l 2
 246 415 217 381 212 376 c 2
 169 335 l 2
 146 309 130 286 130 269 c 2
 130 180 l 1
 219 180 l 1
EndSplineSet
Validated: 9
EndChar

StartChar: period
Encoding: 46 46 241
Width: 139
VWidth: 799
Flags: W
HStem: 0 89
VStem: 25 89
LayerCount: 2
Fore
SplineSet
25 89 m 1
 25 0 l 1
 114 0 l 1
 114 89 l 1
 25 89 l 1
EndSplineSet
Validated: 9
EndChar

StartChar: v
Encoding: 118 118 248
Width: 360
VWidth: 799
Flags: W
LayerCount: 2
Fore
SplineSet
180 156 m 1
 114 444 l 1
 25 444 l 1
 114 0 l 1
 246 0 l 1
 335 444 l 1
 246 444 l 1
 180 156 l 1
EndSplineSet
Validated: 9
EndChar

StartChar: w
Encoding: 119 119 249
Width: 531
VWidth: 799
Flags: W
HStem: 0 21G<109.991 240.466 290.429 421.009> 424 20G<25 118.583 412.417 506>
LayerCount: 2
Fore
SplineSet
311.547297297 327 m 25
 351 156 l 1
 417 444 l 1
 506 444 l 1
 417 0 l 1
 294 0 l 1
 265.075195312 162 l 1
 237 0 l 1
 114 0 l 1
 25 444 l 1
 114 444 l 1
 180 156 l 1
 219.1875 327 l 1
 311.547297297 327 l 25
EndSplineSet
Validated: 1
EndChar

StartChar: x
Encoding: 120 120 250
Width: 360
VWidth: 799
Flags: W
LayerCount: 2
Fore
SplineSet
250 0 m 1
 335 0 l 1
 224 223.004524887 l 1
 334 444 l 1
 246 444 l 1
 180 311.402714932 l 1
 114 444 l 1
 25 444 l 1
 136.49103139 223.99103139 l 1
 25 0 l 1
 113 0 l 1
 180.885650224 136.385650224 l 1
 250 0 l 1
EndSplineSet
Validated: 9
EndChar

StartChar: lslash
Encoding: 322 322 251
Width: 250
VWidth: 799
Flags: W
HStem: 0 73<118.968 225> 601 20G<25 114>
VStem: 25 89<78.6911 621>
LayerCount: 2
Fore
SplineSet
0 133.301 m 1
 0 222.175 l 1
 198 367 l 1
 198 278 l 1
 0 133.301 l 1
  Named: "bar"
EndSplineSet
Refer: 187 108 N 1 0 0 1 0 0 2
Validated: 5
EndChar

StartChar: uni0337
Encoding: 823 823 252
Width: -220
VWidth: 799
Flags: W
HStem: 133.301 266.602
VStem: -300 221.381
LayerCount: 2
Fore
SplineSet
-300 133.30078125 m 1
 -300 222.174804688 l 1
 -78.619140625 399.90234375 l 1
 -78.619140625 311.038085938 l 1
 -300 133.30078125 l 1
  Named: "bar"
EndSplineSet
Validated: 1
EndChar

StartChar: uni0338
Encoding: 824 824 253
Width: -220
VWidth: 799
Flags: W
LayerCount: 2
Fore
SplineSet
-374.30078125 59 m 1
 -374.30078125 147.874023438 l 1
 12 490.521484375 l 5
 12 401.657226562 l 5
 -374.30078125 59 l 1
  Named: "bar"
EndSplineSet
Validated: 1
EndChar

StartChar: Oslash
Encoding: 216 216 254
Width: 360
VWidth: 799
Flags: W
HStem: 0.083 89<117.354 158 202 242.645> 533.083 89<118.888 158 202 241.111>
VStem: 25 89<92.3464 133.083 489.083 528.194> 246 89<92.3483 133.083 489.083 528.195>
LayerCount: 2
Fore
SplineSet
333 642 m 1
 262 642 l 1
 27 -20 l 1
 98 -20 l 1
 333 642 l 1
  Named: "bar"
EndSplineSet
Refer: 15 79 N 1 0 0 1 0 0.083 2
Validated: 5
EndChar

StartChar: oslash
Encoding: 248 248 255
Width: 360
VWidth: 799
Flags: W
HStem: 0 73<132.534 158 202 240.168> 371 73<119.832 158 202 226.595>
VStem: 25 89<114.737 117 327 364.096> 246 89<79.9045 117 327 330.384>
LayerCount: 2
Fore
SplineSet
114 327 m 2
 114 351.288085938 133.711914062 371 158 371 c 2
 202 371 l 2
 226.288085938 371 246 351.288085938 246 327 c 2
 246 117 l 2
 246 92.7119140625 226.288085938 73 202 73 c 2
 158 73 l 2
 133.711914062 73 114 92.7119140625 114 117 c 2
 114 327 l 2
114 444 m 2
 64.8720703125 444 25 404.127929688 25 355 c 2
 25 89 l 2
 25 39.8720703125 64.8720703125 0 114 0 c 2
 246 0 l 2
 295.127929688 0 335 39.8720703125 335 89 c 2
 335 355 l 2
 335 404.127929688 295.127929688 444 246 444 c 2
 114 444 l 2
332.668945312 464.83203125 m 1
 261.569335938 464.83203125 l 1
 27 -20 l 1
 98 -20 l 1
 332.668945312 464.83203125 l 1
  Named: "bar"
EndSplineSet
Validated: 5
EndChar

StartChar: k
Encoding: 107 107 264
Width: 360
VWidth: 799
Flags: W
HStem: 0 21G<25 114 236.737 335> 190 62<114 158> 424 20G<236.833 335> 602 20G<25 114>
VStem: 25 89<0 190 252 622>
LayerCount: 2
Fore
SplineSet
25 622 m 1
 114 622 l 1
 114 252 l 1
 158 252 l 1
 246 444 l 1
 335 444 l 1
 230 221 l 1
 335 0 l 1
 246 0 l 1
 158 190 l 1
 114 190 l 1
 114 0 l 1
 25 0 l 1
 25 622 l 1
EndSplineSet
Validated: 1
EndChar

StartChar: asciitilde
Encoding: 126 126 272
Width: 360
VWidth: 799
Flags: W
HStem: 667 133
VStem: 11 79<667 703.25> 271 79<763.75 800>
LayerCount: 2
Fore
SplineSet
231 667 m 0
 296 667 350 727 350 800 c 1
 271 800 l 1
 271 761 222 742 198 769 c 0
 176 790 160 800 131 800 c 0
 65 800 11 740 11 667 c 1
 90 667 l 1
 90 706 139 725 163 698 c 0
 185 677 201 667 231 667 c 0
EndSplineSet
Validated: 41
EndChar

StartChar: uni028C
Encoding: 652 652 281
Width: 360
VWidth: 799
Flags: W
HStem: 0 21G<25 118.583 241.417 335> 424 20G<109.991 250.009>
VStem: 25 310
LayerCount: 2
Fore
SplineSet
180 288 m 1
 114 0 l 1
 25 0 l 1
 114 444 l 1
 246 444 l 1
 335 0 l 1
 246 0 l 1
 180 288 l 1
EndSplineSet
Validated: 1
EndChar

StartChar: ogonek
Encoding: 731 731 282
Width: 360
VWidth: 799
Flags: W
HStem: -204.392 61.735<231.76 307.638> 0 17.7842<266.314 281.411>
VStem: 140.118 86.252<-138.812 -24.2212>
LayerCount: 2
Fore
SplineSet
210.961 -204.392 m 2
 164.530472636 -204.392 140.118 -139.645987259 140.118 -88.8633 c 0
 140.118 -49.0293911006 146.560424451 -25.238300332 171.359 -12.3086 c 0
 176.34669642 -9.70862709146 192.082205717 -2.50832275011 202.105 0 c 0
 230 6.98105350048 228.669995884 0 246.381 17.7842 c 1
 334.935 0 l 1
 308.369 0 l 2
 255.314104208 0 242.792522628 -24.1333070622 228.672 -66.6445 c 1
 227.137 -75.883 226.37 -84.3173 226.37 -91.9471 c 0
 226.37 -118.912665625 238.166289303 -142.657 261.591 -142.657 c 0
 278.50595758 -142.657 292.747359745 -134.387603966 308.369 -119.963 c 1
 334.935 -133.289 l 1
 330.426707102 -174.879478496 319.965384207 -204.392 272.947 -204.392 c 2
 210.961 -204.392 l 2
EndSplineSet
Validated: 1
EndChar

StartChar: Dcroat
Encoding: 272 272 283
Width: 360
VWidth: 799
Flags: W
HStem: 0 89<202 242.974> 533 89<202 240.539>
VStem: 246 89<92.1962 133 489 527.539>
LayerCount: 2
Fore
SplineSet
0 267 m 1
 189 267 l 5
 189 356 l 5
 0 356 l 1
 0 267 l 1
  Named: "bar"
EndSplineSet
Refer: 4 68 N 1 0 0 1 0 0 2
Validated: 5
EndChar

StartChar: thorn
Encoding: 254 254 284
Width: 360
VWidth: 799
Flags: W
HStem: 0 73<118.766 158 202 241.032> 371 73<118.968 158 202 241.032>
VStem: 25 89<77.9924 110 327 365.756> 246 89<78.6911 117 327 365.309>
LayerCount: 2
Fore
SplineSet
335 355 m 2
 335 399 290 444 246 444 c 2
 114 444 l 1
 114 622 l 1
 25 622 l 1
 25 -178 l 1
 114 -178 l 1
 114 0 l 1
 246 0 l 2
 290 0 335 45 335 89 c 2
 335 355 l 2
246 117 m 2
 246 90 228 73 202 73 c 2
 158 73 l 2
 134 73 117 88 114 110 c 2
 114 327 l 2
 114 354 132 371 158 371 c 2
 202 371 l 2
 228 371 246 354 246 327 c 2
 246 117 l 2
EndSplineSet
Validated: 9
EndChar

StartChar: aogonek
Encoding: 261 261 285
Width: 360
VWidth: 0
HStem: -4 71<117.026 158> 182 73<119.244 158 199 240.986> 369 73<117.026 158 202 242.804>
VStem: 25 89<70.457 111 137 176.309 325 365.363> 246 89<138 176.756 326 365.363>
LayerCount: 2
Fore
SplineSet
158 67 m 2
 126 67 114 80 114 111 c 2
 114 137 l 2
 114 164 131 182 158 182 c 2
 202 182 l 2
 228 182 246 165 246 138 c 2
 246 67 l 1
 158 67 l 2
246 236 m 1025
212.377929688 -4 m 2
 171.939453125 -4 139.119140625 -39.3623046875 139.119140625 -87.86328125 c 0
 139.119140625 -138.07421875 166.405273438 -200.706054688 209.9609375 -203.391601562 c 2
 271.948242188 -203.391601562 l 2
 318.962890625 -203.395507812 329.427734375 -173.877929688 333.934570312 -132.290039062 c 1
 307.370117188 -118.962890625 l 1
 292.571289062 -132.627929688 278.228515625 -140.129882812 264.341796875 -141.471679688 c 0
 230 -144.790039062 222 -98 227.670898438 -65.64453125 c 24
 234 -31 251 -4 290.201171875 -4 c 2
 335 -4 l 1
 335 353 l 2
 335 397 290 442 246 442 c 2
 114 442 l 2
 70 442 25 397 25 353 c 2
 25 306 l 1
 114 306 l 1
 114 325 l 2
 114 356 126 369 158 369 c 2
 202 369 l 2
 233 369 246 356 246 326 c 2
 246 236 l 1
 233 248 217 255 199 255 c 2
 114 255 l 2
 70 255 25 210 25 166 c 2
 25 87 l 2
 25 43 70 -4 114 -4 c 2
 212.377929688 -4 l 2
EndSplineSet
Validated: 41
EndChar

StartChar: eogonek
Encoding: 281 281 286
Width: 360
VWidth: 0
Flags: W
HStem: 0 73<117.026 168.378 201.689 242.974> 187 69<114 246> 371 73<118.968 240.756>
VStem: 25 89<76.6365 187 256 365.309> 246 89<77.7085 136 256 365.309>
LayerCount: 2
Fore
SplineSet
168.377929688 0 m 6
 114 0 l 6
 70 0 25 45 25 89 c 2
 25 355 l 2
 25 399 70 444 114 444 c 2
 246 444 l 2
 290 444 335 399 335 355 c 2
 335 187 l 1
 114 187 l 1
 114 117 l 2
 114 86 126 73 158 73 c 2
 202 73 l 2
 234 73 246 86 246 117 c 2
 246 136 l 1
 335 136 l 1
 335 88 l 2
 335 44 290 0 246 0 c 6
 246.201171875 0 l 6
 207 0 190 -31 183.670898438 -65.64453125 c 28
 178 -98 186 -144.790039062 220.341796875 -141.471679688 c 4
 234.228515625 -140.129882812 248.571289062 -132.627929688 263.370117188 -118.962890625 c 5
 289.934570312 -132.290039062 l 5
 285.427734375 -173.877929688 274.962890625 -203.395507812 227.948242188 -203.391601562 c 6
 165.9609375 -203.391601562 l 6
 122.405273438 -200.706054688 95.119140625 -138.07421875 95.119140625 -87.86328125 c 4
 95.119140625 -39.3623046875 127.939453125 0 168.377929688 0 c 6
158 371 m 2
 132 371 114 354 114 327 c 2
 114 256 l 1
 246 256 l 1
 246 326 l 2
 246 353 229 371 202 371 c 2
 158 371 l 2
EndSplineSet
Validated: 33
EndChar

